<svg version="1.1" viewBox="0.0 0.0 158.5249343832021 100.0" fill="none" stroke="none" stroke-linecap="square" stroke-miterlimit="10" xmlns:xlink="http://www.w3.org/1999/xlink" xmlns="http://www.w3.org/2000/svg"><clipPath id="p.0"><path d="m0 0l158.52493 0l0 100.0l-158.52493 0l0 -100.0z" clip-rule="nonzero"/></clipPath><g clip-path="url(#p.0)"><path fill="#000000" fill-opacity="0.0" d="m0 0l158.52493 0l0 100.0l-158.52493 0z" fill-rule="evenodd"/><path fill="#000000" fill-opacity="0.0" d="m-4.335958 -2.5853019l367.02362 0l0 42.015747l-367.02362 0z" fill-rule="evenodd"/><path fill="#000000" d="m16.601542 18.053446q0 1.9375 -0.6875 3.421875q-0.671875 1.46875 -1.921875 2.265625q-1.25 0.78125 -2.875 0.78125q-1.609375 0 -2.875 -0.78125q-1.2656245 -0.796875 -1.9531245 -2.25q-0.6875 -1.46875 -0.703125 -3.375l0 -0.734375q0 -1.953124 0.6875 -3.437499q0.703125 -1.484375 1.9531245 -2.265625q1.25 -0.796875 2.859375 -0.796875q1.625 0 2.875 0.78125q1.265625 0.78125 1.9375 2.25q0.6875 1.453125 0.703125 3.406249l0 0.734375zm-2.3125 -0.703125q0 -2.203124 -0.828125 -3.374999q-0.828125 -1.171875 -2.359375 -1.171875q-1.5 0 -2.34375 1.171875q-0.8437495 1.171875 -0.8593745 3.312499l0 0.765625q0 2.1875 0.8437495 3.375q0.859375 1.1875 2.375 1.1875q1.53125 0 2.34375 -1.15625q0.828125 -1.171875 0.828125 -3.40625l0 -0.703125zm11.830048 3.890625l-5.125 0l-1.078125 3.09375l-2.40625 0l5.015625 -13.265624l2.0625 0l5.03125 13.265624l-2.40625 0l-1.09375 -3.09375zm-4.484375 -1.859375l3.84375 0l-1.921875 -5.499999l-1.921875 5.499999zm16.416246 1.53125q0 -0.875 -0.625 -1.34375q-0.609375 -0.46875 -2.21875 -0.953125q-1.59375 -0.484375 -2.546875 -1.078125q-1.8125019 -1.140625 -1.8125019 -2.968749q0 -1.609375 1.3125019 -2.640625q1.3125 -1.046875 3.390625 -1.046875q1.390625 0 2.46875 0.515625q1.09375 0.515625 1.703125 1.453125q0.625 0.9375 0.625 2.09375l-2.296875 0q0 -1.046875 -0.65625 -1.625q-0.640625 -0.59375 -1.859375 -0.59375q-1.125 0 -1.75 0.484375q-0.625 0.484375 -0.625 1.34375q0 0.734375 0.671875 1.21875q0.671875 0.48437405 2.21875 0.95312405q1.546875 0.453125 2.484375 1.046875q0.9375 0.59375 1.375 1.359375q0.4375 0.75 0.4375 1.765625q0 1.65625 -1.265625 2.640625q-1.265625 0.984375 -3.453125 0.984375q-1.4375 0 -2.640625 -0.53125q-1.2031269 -0.546875 -1.8750019 -1.484375q-0.671875 -0.9375 -0.671875 -2.1875l2.312502 0q0 1.140625 0.734375 1.765625q0.75 0.609375 2.140625 0.609375q1.203125 0 1.8125 -0.484375q0.609375 -0.484375 0.609375 -1.296875zm6.7593384 3.421875l-2.296875 0l0 -13.265624l2.296875 0l0 13.265624zm9.765289 -3.421875q0 -0.875 -0.625 -1.34375q-0.609375 -0.46875 -2.21875 -0.953125q-1.59375 -0.484375 -2.546875 -1.078125q-1.8125 -1.140625 -1.8125 -2.968749q0 -1.609375 1.3125 -2.640625q1.3125 -1.046875 3.390625 -1.046875q1.390625 0 2.46875 0.515625q1.09375 0.515625 1.703125 1.453125q0.625 0.9375 0.625 2.09375l-2.296875 0q0 -1.046875 -0.65625 -1.625q-0.640625 -0.59375 -1.859375 -0.59375q-1.125 0 -1.75 0.484375q-0.625 0.484375 -0.625 1.34375q0 0.734375 0.671875 1.21875q0.671875 0.48437405 2.21875 0.95312405q1.546875 0.453125 2.484375 1.046875q0.9375 0.59375 1.375 1.359375q0.4375 0.75 0.4375 1.765625q0 1.65625 -1.265625 2.640625q-1.265625 0.984375 -3.453125 0.984375q-1.4375 0 -2.640625 -0.53125q-1.203125 -0.546875 -1.875 -1.484375q-0.671875 -0.9375 -0.671875 -2.1875l2.3125 0q0 1.140625 0.734375 1.765625q0.75 0.609375 2.140625 0.609375q1.203125 0 1.8125 -0.484375q0.609375 -0.484375 0.609375 -1.296875zm18.014553 -7.984374l-4.140625 0l0 11.406249l-2.28125 0l0 -11.406249l-4.109371 0l0 -1.859375l10.531246 0l0 1.859375zm9.479355 5.484374l-5.4375 0l0 4.078125l6.359375 0l0 1.84375l-8.671875 0l0 -13.265624l8.609375 0l0 1.859375l-6.296875 0l0 3.656249l5.4375 0l0 1.828125zm7.6737976 0.8125l-2.5625 0l0 5.109375l-2.3125 0l0 -13.265624l4.671875 0q2.296875 0 3.53125 1.03125q1.25 1.03125 1.25 2.984375q0 1.328124 -0.640625 2.234374q-0.640625 0.890625 -1.78125 1.375l2.96875 5.515625l0 0.125l-2.46875 0l-2.65625 -5.109375zm-2.5625 -1.84375l2.359375 0q1.171875 0 1.828125 -0.59375q0.65625 -0.59375 0.65625 -1.609374q0 -1.0625 -0.609375 -1.640625q-0.609375 -0.59375 -1.8125 -0.609375l-2.421875 0l0 4.453124zm12.329437 -6.312499l3.8125 10.171874l3.828125 -10.171874l2.96875 0l0 13.265624l-2.296875 0l0 -4.375l0.234375 -5.843749l-3.921875 10.218749l-1.640625 0l-3.90625 -10.218749l0.21875 5.843749l0 4.375l-2.296875 0l0 -13.265624l3.0 0zm15.770828 13.265624l-2.296875 0l0 -13.265624l2.296875 0l0 13.265624zm13.359047 0l-2.3125076 0l-5.90625 -9.406249l0 9.406249l-2.3125 0l0 -13.265624l2.3125 0l5.921875 9.453124l0 -9.453124l2.2968826 0l0 13.265624zm10.299896 -3.09375l-5.125 0l-1.078125 3.09375l-2.40625 0l5.015625 -13.265624l2.0625 0l5.03125 13.265624l-2.40625 0l-1.09375 -3.09375zm-4.484375 -1.859375l3.84375 0l-1.921875 -5.499999l-1.921875 5.499999zm11.7912445 3.109375l6.015625 0l0 1.84375l-8.328125 0l0 -13.265624l2.3125 0l0 11.421874z" fill-rule="nonzero"/></g></svg>